<svg width="610" height="166" viewBox="0 0 610 166" fill="none" xmlns="http://www.w3.org/2000/svg">
<g filter="url(#filter0_d)">
<g clip-path="url(#clip0)">
<path d="M110.827 36.5734L54.8733 36.7338V134.691C54.8733 141.131 58.4537 146.352 62.8699 146.352H102.852C107.268 146.352 110.849 141.131 110.849 134.691V36.6317L110.827 36.5734Z" fill="#95E7EE"/>
<path d="M110.849 134.691V36.6317L110.826 36.5734L54.5818 36.7338V134.691H110.849Z" fill="#FEC652"/>
<path d="M128.341 61.806V73.4675V111.367V123.029C134.781 123.029 140.002 117.808 140.002 111.367V73.4675C140.002 67.0275 134.781 61.806 128.341 61.806Z" fill="#95E7EE"/>
<path d="M114.655 33.0551C113.006 30.6604 110.47 28.8794 107.595 28.2646C104.228 27.5416 101.035 28.2763 98.5311 29.9555C96.9393 25.4134 92.6129 22.1569 87.5255 22.1569C85.2923 22.1569 83.2049 22.7837 81.444 23.8974C77.173 19.122 70.9662 16.0346 64.0567 16.0346C55.3193 16.0346 47.7044 20.9237 43.7249 28.0168C29.5124 26.1947 17.2649 37.2352 17.2649 51.1037C17.2649 60.1218 17.2649 70.6927 17.2649 72.969C17.2649 76.1876 20.0199 78.7998 23.2414 78.7998C26.4629 78.7998 29.0722 76.1876 29.2179 72.9049V62.7652V49.646C36.0545 49.5877 41.9057 45.5878 44.7219 39.8212C45.2088 38.8241 46.2233 38.1915 47.3341 38.1915C48.716 38.1915 49.9842 38.7104 50.9259 39.6346C53.5555 42.2205 57.1618 43.8152 61.1413 43.8152C65.2549 43.8152 68.9691 42.1126 71.6192 39.3722C72.3481 38.6171 73.3539 38.1915 74.4063 38.1915C87.3797 38.1915 87.234 45.6198 87.234 49.646V61.3075C87.234 64.5261 89.8432 67.1382 93.0647 67.1382C96.2862 67.1382 98.8955 64.5261 98.8955 61.3075V49.8122V36.693C105.06 39.8287 111.481 37.6474 114.655 33.0551Z" fill="#FFE5CB"/>
<path d="M87.3797 131.568C85.7704 131.568 84.4644 132.874 84.4644 134.484C84.4644 136.093 85.7704 137.399 87.3797 137.399C88.989 137.399 90.2951 136.093 90.2951 134.484C90.2951 132.874 88.989 131.568 87.3797 131.568Z" fill="white"/>
<path d="M46.4188 58.3921C44.8086 58.3921 43.5034 59.6973 43.5034 61.3075V116.991C43.5034 118.601 44.8086 119.907 46.4188 119.907C48.029 119.907 49.3342 118.601 49.3342 116.991V61.3075C49.3342 59.6973 48.029 58.3921 46.4188 58.3921Z" fill="white"/>
<path d="M69.7418 58.3921C68.1316 58.3921 66.8264 59.6973 66.8264 61.3075V116.991C66.8264 118.601 68.1316 119.907 69.7418 119.907C71.352 119.907 72.6572 118.601 72.6572 116.991V61.3075C72.6572 59.6973 71.352 58.3921 69.7418 58.3921Z" fill="white"/>
<path d="M40.8796 149.267H99.1871C107.225 149.267 113.764 142.728 113.764 134.691V125.944H128.341C136.379 125.944 142.918 119.405 142.918 111.367V61.5145C142.918 53.4768 136.379 46.9376 128.341 46.9376H113.764V38.116C118.334 34.6901 120.506 28.8996 119.218 23.1822C118.013 17.8208 113.587 13.4454 108.207 12.2947C105.347 11.681 102.466 11.8982 99.8413 12.8962C97.2093 8.74672 92.5873 6.1223 87.5256 6.1223C85.6178 6.1223 83.7534 6.49226 82.0295 7.20419C77.1498 2.6011 70.7164 0 64.0568 0C55.2477 0 47.0322 4.48764 42.1827 11.8303C26.944 10.9872 14.3496 23.077 14.3496 37.9845V72.969C14.3496 77.7916 18.3384 81.7152 23.2415 81.7152C24.317 81.7152 25.3476 81.5195 26.3027 81.1633V134.691C26.3027 142.728 32.8419 149.267 40.8796 149.267ZM99.1871 143.437H40.8796C37.0791 143.437 33.8383 140.999 32.6349 137.606H75.7212C77.3314 137.606 78.6366 136.301 78.6366 134.691C78.6366 133.08 77.3314 131.775 75.7212 131.775H32.1334V72.9049V52.3328C38.6822 51.3442 44.3529 47.2198 47.3342 41.1071C47.9424 41.1071 48.4782 41.3176 48.882 41.7138C52.1723 44.9493 56.5261 46.7309 61.1414 46.7309C65.925 46.7309 70.3905 44.8374 73.7169 41.3972C73.8948 41.213 74.1464 41.1071 74.4064 41.1071C78.9448 41.1071 81.9144 42.0765 83.2333 43.9878C84.3204 45.5636 84.3196 47.753 84.3187 49.5125V61.3078C84.3187 65.1083 86.7562 68.349 90.1495 69.5525V116.992C90.1495 118.602 91.4547 119.907 93.0648 119.907C94.675 119.907 95.9802 118.602 95.9802 116.992V69.5522C99.3734 68.3487 101.811 65.1083 101.811 61.3075V40.7646C103.853 41.1721 105.937 41.1748 107.933 40.7666V131.775H99.0384C97.4283 131.775 96.1231 133.08 96.1231 134.691C96.1231 136.301 97.4283 137.577 99.0384 137.577H107.432C106.228 140.97 102.988 143.437 99.1871 143.437ZM113.764 64.4299H125.426V108.452H113.764V64.4299ZM128.341 52.7684C133.164 52.7684 137.087 56.6919 137.087 61.5145V111.367C137.087 116.19 133.164 120.114 128.341 120.114H113.764V114.283H128.341C129.951 114.283 131.256 112.978 131.256 111.367V61.5145C131.256 59.9043 129.951 58.5991 128.341 58.5991H113.764V52.7684H128.341ZM23.2415 75.8844C21.5824 75.8844 20.1804 74.5491 20.1804 72.969V37.9845C20.1804 26.7323 29.3877 17.62 40.7067 17.62C41.5862 17.62 42.4705 17.6759 43.3541 17.7894C44.5334 17.9407 45.6859 17.3605 46.2675 16.3241C49.8989 9.85165 56.7153 5.83076 64.0568 5.83076C69.8089 5.83076 75.3545 8.34236 79.2713 12.7218C80.2206 13.7836 81.7984 14.004 83.0027 13.2422C84.3359 12.3988 85.9 11.9531 87.5256 11.9531C91.2369 11.9531 94.554 14.3031 95.7799 17.8004C96.0782 18.6517 96.754 19.3173 97.6099 19.6024C98.4656 19.8875 99.4055 19.7604 100.155 19.2578C102.142 17.9255 104.567 17.4774 106.985 17.9963C110.134 18.6698 112.825 21.328 113.529 24.4624C115.188 31.8278 107.639 37.8696 100.217 34.0945C99.3134 33.6347 98.2358 33.6776 97.3711 34.2079C96.5067 34.7379 95.9799 35.679 95.9799 36.693V61.3075C95.9799 62.915 94.6721 64.2229 93.0645 64.2229C91.457 64.2229 90.1492 62.915 90.1492 61.3075V49.5142C90.15 47.2181 90.1515 43.7479 88.0323 40.6762C85.5604 37.0929 80.9759 35.2761 74.4064 35.2761C72.5726 35.2761 70.7925 36.0309 69.5234 37.3457C67.3072 39.6378 64.3303 40.8998 61.1414 40.8998C58.0648 40.8998 55.1629 39.7124 52.9682 37.5539C51.4717 36.0848 49.4709 35.2761 47.3342 35.2761C45.1246 35.2761 43.071 36.558 42.1023 38.5419C39.6586 43.5458 34.7118 46.6837 29.193 46.7309C27.5927 46.7446 26.3024 48.0457 26.3024 49.6463V72.8308C26.1997 74.5477 24.8648 75.8844 23.2415 75.8844Z" fill="white"/>
</g>
<path d="M200.304 83.856H218.088V109.056C215.304 109.968 212.496 110.64 209.664 111.072C206.832 111.504 203.616 111.72 200.016 111.72C194.688 111.72 190.2 110.664 186.552 108.552C182.904 106.392 180.12 103.344 178.2 99.408C176.328 95.424 175.392 90.72 175.392 85.296C175.392 79.92 176.448 75.264 178.56 71.328C180.672 67.392 183.696 64.344 187.632 62.184C191.616 59.976 196.416 58.872 202.032 58.872C204.912 58.872 207.624 59.136 210.168 59.664C212.76 60.192 215.16 60.936 217.368 61.896L214.92 67.512C213.096 66.696 211.032 66 208.728 65.424C206.472 64.848 204.12 64.56 201.672 64.56C195.528 64.56 190.728 66.408 187.272 70.104C183.864 73.8 182.16 78.864 182.16 85.296C182.16 89.376 182.808 93 184.104 96.168C185.448 99.288 187.536 101.736 190.368 103.512C193.2 105.24 196.92 106.104 201.528 106.104C203.784 106.104 205.704 105.984 207.288 105.744C208.872 105.504 210.312 105.216 211.608 104.88V89.616H200.304V83.856ZM232.743 57.936C233.703 57.936 234.543 58.272 235.263 58.944C236.031 59.568 236.415 60.576 236.415 61.968C236.415 63.312 236.031 64.32 235.263 64.992C234.543 65.664 233.703 66 232.743 66C231.687 66 230.799 65.664 230.079 64.992C229.359 64.32 228.999 63.312 228.999 61.968C228.999 60.576 229.359 59.568 230.079 58.944C230.799 58.272 231.687 57.936 232.743 57.936ZM235.839 72.408V111H229.503V72.408H235.839ZM266.641 71.688C271.249 71.688 274.729 72.816 277.081 75.072C279.433 77.28 280.609 80.88 280.609 85.872V111H274.345V86.304C274.345 80.112 271.465 77.016 265.705 77.016C261.433 77.016 258.481 78.216 256.849 80.616C255.217 83.016 254.401 86.472 254.401 90.984V111H248.065V72.408H253.177L254.113 77.664H254.473C255.721 75.648 257.449 74.16 259.657 73.2C261.865 72.192 264.193 71.688 266.641 71.688ZM315.937 111V59.592H322.417V105.24H344.881V111H315.937ZM367.447 71.76C372.151 71.76 375.631 72.792 377.887 74.856C380.143 76.92 381.271 80.208 381.271 84.72V111H376.663L375.439 105.528H375.151C373.471 107.64 371.695 109.2 369.823 110.208C367.999 111.216 365.455 111.72 362.191 111.72C358.687 111.72 355.783 110.808 353.479 108.984C351.175 107.112 350.023 104.208 350.023 100.272C350.023 96.432 351.535 93.48 354.559 91.416C357.583 89.304 362.239 88.152 368.527 87.96L375.079 87.744V85.44C375.079 82.224 374.383 79.992 372.991 78.744C371.599 77.496 369.631 76.872 367.087 76.872C365.071 76.872 363.151 77.184 361.327 77.808C359.503 78.384 357.799 79.056 356.215 79.824L354.271 75.072C355.951 74.16 357.943 73.392 360.247 72.768C362.551 72.096 364.951 71.76 367.447 71.76ZM369.319 92.352C364.519 92.544 361.183 93.312 359.311 94.656C357.487 96 356.575 97.896 356.575 100.344C356.575 102.504 357.223 104.088 358.519 105.096C359.863 106.104 361.567 106.608 363.631 106.608C366.895 106.608 369.607 105.72 371.767 103.944C373.927 102.12 375.007 99.336 375.007 95.592V92.136L369.319 92.352ZM426.742 91.632C426.742 98.016 425.11 102.96 421.846 106.464C418.63 109.968 414.262 111.72 408.742 111.72C405.334 111.72 402.286 110.952 399.598 109.416C396.958 107.832 394.87 105.552 393.334 102.576C391.798 99.552 391.03 95.904 391.03 91.632C391.03 85.248 392.638 80.328 395.854 76.872C399.07 73.416 403.438 71.688 408.958 71.688C412.462 71.688 415.534 72.48 418.174 74.064C420.862 75.6 422.95 77.856 424.438 80.832C425.974 83.76 426.742 87.36 426.742 91.632ZM397.582 91.632C397.582 96.192 398.47 99.816 400.246 102.504C402.07 105.144 404.95 106.464 408.886 106.464C412.774 106.464 415.63 105.144 417.454 102.504C419.278 99.816 420.19 96.192 420.19 91.632C420.19 87.072 419.278 83.496 417.454 80.904C415.63 78.312 412.75 77.016 408.814 77.016C404.878 77.016 402.022 78.312 400.246 80.904C398.47 83.496 397.582 87.072 397.582 91.632ZM482.468 83.856H500.252V109.056C497.468 109.968 494.66 110.64 491.828 111.072C488.996 111.504 485.78 111.72 482.18 111.72C476.852 111.72 472.364 110.664 468.716 108.552C465.068 106.392 462.284 103.344 460.364 99.408C458.492 95.424 457.556 90.72 457.556 85.296C457.556 79.92 458.612 75.264 460.724 71.328C462.836 67.392 465.86 64.344 469.796 62.184C473.78 59.976 478.58 58.872 484.196 58.872C487.076 58.872 489.788 59.136 492.332 59.664C494.924 60.192 497.324 60.936 499.532 61.896L497.084 67.512C495.26 66.696 493.196 66 490.892 65.424C488.636 64.848 486.284 64.56 483.836 64.56C477.692 64.56 472.892 66.408 469.436 70.104C466.028 73.8 464.324 78.864 464.324 85.296C464.324 89.376 464.972 93 466.268 96.168C467.612 99.288 469.7 101.736 472.532 103.512C475.364 105.24 479.084 106.104 483.692 106.104C485.948 106.104 487.868 105.984 489.452 105.744C491.036 105.504 492.476 105.216 493.772 104.88V89.616H482.468V83.856ZM543.923 72.408V111H538.739L537.803 105.888H537.515C536.267 107.904 534.539 109.392 532.331 110.352C530.123 111.264 527.771 111.72 525.275 111.72C520.619 111.72 517.115 110.616 514.763 108.408C512.411 106.152 511.235 102.576 511.235 97.68V72.408H517.643V97.248C517.643 103.392 520.499 106.464 526.211 106.464C530.483 106.464 533.435 105.264 535.067 102.864C536.747 100.464 537.587 97.008 537.587 92.496V72.408H543.923ZM574.751 71.688C579.359 71.688 582.839 72.816 585.191 75.072C587.543 77.28 588.719 80.88 588.719 85.872V111H582.455V86.304C582.455 80.112 579.575 77.016 573.815 77.016C569.543 77.016 566.591 78.216 564.959 80.616C563.327 83.016 562.511 86.472 562.511 90.984V111H556.175V72.408H561.287L562.223 77.664H562.583C563.831 75.648 565.559 74.16 567.767 73.2C569.975 72.192 572.303 71.688 574.751 71.688Z" fill="white"/>
</g>
<defs>
<filter id="filter0_d" x="0" y="0" width="592.719" height="157.267" filterUnits="userSpaceOnUse" color-interpolation-filters="sRGB">
<feFlood flood-opacity="0" result="BackgroundImageFix"/>
<feColorMatrix in="SourceAlpha" type="matrix" values="0 0 0 0 0 0 0 0 0 0 0 0 0 0 0 0 0 0 127 0"/>
<feOffset dy="4"/>
<feGaussianBlur stdDeviation="2"/>
<feColorMatrix type="matrix" values="0 0 0 0 0 0 0 0 0 0 0 0 0 0 0 0 0 0 0.5 0"/>
<feBlend mode="normal" in2="BackgroundImageFix" result="effect1_dropShadow"/>
<feBlend mode="normal" in="SourceGraphic" in2="effect1_dropShadow" result="shape"/>
</filter>
<clipPath id="clip0">
<rect width="149.267" height="149.267" fill="white" transform="translate(4)"/>
</clipPath>
</defs>
</svg>
