<svg width="49" height="48" viewBox="0 0 49 48" fill="none" xmlns="http://www.w3.org/2000/svg">
<path d="M48.9891 11.7788C48.9749 11.4241 48.8699 11.0881 48.693 10.8321V10.8248L41.2357 0.437782C41.0355 0.157335 40.7633 -0.000277854 40.4793 3.67717e-07H8.39475C8.10891 0.0004177 7.83525 0.160813 7.6352 0.445156L0.30252 10.8321C0.219424 10.9547 0.152009 11.0962 0.10327 11.2506C0.0883889 11.2951 0.0808983 11.3411 0.069213 11.3871C0.0375528 11.5139 0.0185766 11.6462 0.0127839 11.7803C0.0127839 11.8115 0 11.8382 0 11.8709V16.3224C0 16.3432 0.00749058 16.361 0.00848933 16.3803C0.0108863 16.5563 0.0361545 16.7303 0.0830955 16.8938C0.0830955 16.9042 0.0915849 16.9131 0.0947808 16.9234C0.14322 17.0717 0.209137 17.2076 0.289736 17.3256C0.315104 17.3606 0.34177 17.3939 0.369635 17.425C0.43735 17.5083 0.512556 17.5793 0.593354 17.6358C0.625813 17.6601 0.659271 17.6818 0.693528 17.701C0.810881 17.7667 0.935724 17.8024 1.06216 17.8063H4.25815V45.9995C4.25815 46.819 4.73515 47.4834 5.32351 47.4834H6.38887C6.97723 47.4834 7.45423 46.819 7.45423 45.9995V17.8062H10.6502V34.1285C10.6502 34.948 11.1272 35.6124 11.7156 35.6124H12.7809C13.3693 35.6124 13.8463 34.948 13.8463 34.1285V17.8062H35.1528V26.7093V34.1285C35.1528 34.948 35.6298 35.6124 36.2182 35.6124H37.2835C37.8719 35.6124 38.3489 34.948 38.3489 34.1285V17.8062H41.5449V38.58V45.9992C41.5449 46.8187 42.0219 47.4831 42.6102 47.4831H43.6756C44.264 47.4831 44.741 46.8187 44.741 45.9992V17.8062H47.9369C48.0645 17.8027 48.1904 17.7671 48.3088 17.7009C48.3433 17.6813 48.3772 17.659 48.4099 17.6341C48.4902 17.5779 48.5651 17.5077 48.6326 17.4249C48.6604 17.3933 48.6871 17.3595 48.7125 17.324C48.7915 17.208 48.8563 17.0746 48.9042 16.9294C48.9042 16.916 48.9149 16.9071 48.9191 16.8938C48.9657 16.7297 48.9906 16.5553 48.9926 16.3789C48.9926 16.3596 49.0001 16.3448 49.0001 16.3255V11.871C49.0019 11.8382 48.9901 11.8115 48.9891 11.7788Z" fill="black"/>
</svg>
