<svg width="50" height="50" viewBox="0 0 50 50" fill="none" xmlns="http://www.w3.org/2000/svg">
<path d="M35.7837 12.251L17.041 12.3047V45.1172C17.041 47.2744 18.2403 49.0234 19.7196 49.0234H33.1125C34.5917 49.0234 35.7911 47.2744 35.7911 45.1172V12.2705L35.7837 12.251Z" fill="#95E7EE"/>
<path d="M35.791 45.1172V12.2705L35.7836 12.251L16.9434 12.3047V45.1172H35.791Z" fill="#FEC652"/>
<path d="M41.6504 20.7031V24.6094V37.3047V41.2109C43.8076 41.2109 45.5566 39.4619 45.5566 37.3047V24.6094C45.5566 22.4521 43.8076 20.7031 41.6504 20.7031Z" fill="#95E7EE"/>
<path d="M37.0661 11.0725C36.5138 10.2703 35.6642 9.67373 34.7012 9.46777C33.5732 9.22559 32.5039 9.47168 31.665 10.0342C31.1318 8.5127 29.6826 7.42187 27.9785 7.42187C27.2305 7.42187 26.5312 7.63184 25.9414 8.00488C24.5107 6.40527 22.4316 5.37109 20.1172 5.37109C17.1904 5.37109 14.6396 7.00879 13.3066 9.38477C8.5459 8.77441 4.44336 12.4727 4.44336 17.1182C4.44336 20.139 4.44336 23.6799 4.44336 24.4424C4.44336 25.5205 5.36621 26.3955 6.44531 26.3955C7.52441 26.3955 8.39844 25.5205 8.44727 24.4209V21.0244V16.6299C10.7373 16.6103 12.6973 15.2705 13.6406 13.3389C13.8037 13.0049 14.1436 12.793 14.5156 12.793C14.9785 12.793 15.4033 12.9668 15.7188 13.2764C16.5996 14.1426 17.8076 14.6768 19.1406 14.6768C20.5186 14.6768 21.7627 14.1064 22.6504 13.1885C22.8945 12.9355 23.2314 12.793 23.584 12.793C27.9297 12.793 27.8809 15.2812 27.8809 16.6299V20.5361C27.8809 21.6143 28.7549 22.4893 29.834 22.4893C30.9131 22.4893 31.7871 21.6143 31.7871 20.5361V16.6855V12.291C33.8521 13.3414 36.003 12.6107 37.0661 11.0725Z" fill="#FFE5CB"/>
<path d="M27.9297 44.0713C27.3906 44.0713 26.9531 44.5088 26.9531 45.0479C26.9531 45.5869 27.3906 46.0244 27.9297 46.0244C28.4688 46.0244 28.9062 45.5869 28.9062 45.0479C28.9062 44.5088 28.4688 44.0713 27.9297 44.0713Z" fill="white"/>
<path d="M14.209 19.5596C13.6696 19.5596 13.2324 19.9968 13.2324 20.5361V39.1885C13.2324 39.7278 13.6696 40.165 14.209 40.165C14.7483 40.165 15.1855 39.7278 15.1855 39.1885V20.5361C15.1855 19.9968 14.7483 19.5596 14.209 19.5596Z" fill="white"/>
<path d="M22.0215 19.5596C21.4821 19.5596 21.0449 19.9968 21.0449 20.5361V39.1885C21.0449 39.7278 21.4821 40.165 22.0215 40.165C22.5608 40.165 22.998 39.7278 22.998 39.1885V20.5361C22.998 19.9968 22.5608 19.5596 22.0215 19.5596Z" fill="white"/>
<path d="M12.3535 50H31.8848C34.5771 50 36.7676 47.8096 36.7676 45.1172V42.1875H41.6504C44.3428 42.1875 46.5332 39.9971 46.5332 37.3047V20.6055C46.5332 17.9131 44.3428 15.7227 41.6504 15.7227H36.7676V12.7677C38.2983 11.6201 39.0259 9.68047 38.5944 7.76533C38.1908 5.96943 36.7084 4.50381 34.9062 4.11836C33.948 3.91279 32.9831 3.98555 32.1039 4.31982C31.2223 2.92988 29.674 2.05078 27.9785 2.05078C27.3395 2.05078 26.7149 2.17471 26.1375 2.41318C24.5029 0.871289 22.3479 0 20.1172 0C17.1664 0 14.4145 1.50322 12.79 3.96279C7.68555 3.68037 3.4668 7.73008 3.4668 12.7236V24.4424C3.4668 26.0578 4.80293 27.3721 6.44531 27.3721C6.80557 27.3721 7.15078 27.3065 7.4707 27.1872V45.1172C7.4707 47.8096 9.66113 50 12.3535 50ZM31.8848 48.0469H12.3535C11.0805 48.0469 9.99492 47.2304 9.5918 46.0938H24.0244C24.5638 46.0938 25.001 45.6565 25.001 45.1172C25.001 44.5778 24.5638 44.1406 24.0244 44.1406H9.42383V24.4209V17.5299C11.6175 17.1987 13.517 15.8172 14.5156 13.7696C14.7193 13.7696 14.8988 13.8401 15.0341 13.9729C16.1362 15.0566 17.5946 15.6534 19.1406 15.6534C20.743 15.6534 22.2388 15.0191 23.353 13.8668C23.4126 13.8051 23.4969 13.7696 23.584 13.7696C25.1042 13.7696 26.0989 14.0943 26.5407 14.7346C26.9049 15.2624 26.9046 15.9958 26.9043 16.5852V20.5362C26.9043 21.8093 27.7208 22.8948 28.8574 23.2979V39.1886C28.8574 39.7279 29.2946 40.1651 29.834 40.1651C30.3733 40.1651 30.8105 39.7279 30.8105 39.1886V23.2979C31.9472 22.8947 32.7637 21.8093 32.7637 20.5361V13.6549C33.4478 13.7914 34.1459 13.7923 34.8145 13.6556V44.1406H31.835C31.2956 44.1406 30.8584 44.5778 30.8584 45.1172C30.8584 45.6565 31.2956 46.084 31.835 46.084H34.6465C34.2434 47.2206 33.1578 48.0469 31.8848 48.0469ZM36.7676 21.582H40.6738V36.3281H36.7676V21.582ZM41.6504 17.6758C43.2658 17.6758 44.5801 18.99 44.5801 20.6055V37.3047C44.5801 38.9201 43.2658 40.2344 41.6504 40.2344H36.7676V38.2812H41.6504C42.1897 38.2812 42.627 37.844 42.627 37.3047V20.6055C42.627 20.0661 42.1897 19.6289 41.6504 19.6289H36.7676V17.6758H41.6504ZM6.44531 25.4189C5.88955 25.4189 5.41992 24.9717 5.41992 24.4424V12.7236C5.41992 8.95449 8.5041 5.90215 12.2956 5.90215C12.5902 5.90215 12.8864 5.9209 13.1824 5.95889C13.5774 6.00957 13.9635 5.81523 14.1583 5.46807C15.3747 3.3 17.658 1.95312 20.1172 1.95312C22.0439 1.95312 23.9016 2.79443 25.2136 4.26143C25.5315 4.61709 26.0601 4.69092 26.4635 4.43574C26.9101 4.15322 27.434 4.00391 27.9785 4.00391C29.2217 4.00391 30.3328 4.79111 30.7435 5.9626C30.8434 6.24775 31.0697 6.4707 31.3564 6.56621C31.6431 6.66172 31.9579 6.61914 32.2089 6.45078C32.8745 6.00449 33.6868 5.85439 34.4969 6.02822C35.5516 6.25381 36.4529 7.14424 36.6889 8.19414C37.2447 10.6613 34.7157 12.6852 32.2298 11.4206C31.927 11.2666 31.5661 11.281 31.2765 11.4586C30.9869 11.6361 30.8104 11.9514 30.8104 12.291V20.5361C30.8104 21.0746 30.3724 21.5127 29.8339 21.5127C29.2954 21.5127 28.8573 21.0746 28.8573 20.5361V16.5857C28.8576 15.8166 28.8581 14.6542 28.1482 13.6253C27.3202 12.425 25.7846 11.8164 23.584 11.8164C22.9697 11.8164 22.3734 12.0692 21.9483 12.5097C21.206 13.2774 20.2088 13.7002 19.1406 13.7002C18.1101 13.7002 17.138 13.3024 16.4028 12.5794C15.9016 12.0873 15.2313 11.8164 14.5156 11.8164C13.7755 11.8164 13.0876 12.2458 12.7631 12.9104C11.9445 14.5865 10.2875 15.6376 8.43887 15.6534C7.90283 15.658 7.47061 16.0938 7.47061 16.63V24.3961C7.43623 24.9712 6.98906 25.4189 6.44531 25.4189Z" fill="white"/>
</svg>
