<svg width="273" height="55" viewBox="0 0 273 55" fill="none" xmlns="http://www.w3.org/2000/svg">
<path d="M35.7837 12.251L17.041 12.3047V45.1172C17.041 47.2744 18.2403 49.0234 19.7196 49.0234H33.1125C34.5917 49.0234 35.7911 47.2744 35.7911 45.1172V12.2705L35.7837 12.251Z" fill="#95E7EE"/>
<path d="M35.791 45.1172V12.2705L35.7836 12.251L16.9434 12.3047V45.1172H35.791Z" fill="#FEC652"/>
<path d="M41.6504 20.7031V24.6094V37.3047V41.2109C43.8076 41.2109 45.5566 39.4619 45.5566 37.3047V24.6094C45.5566 22.4521 43.8076 20.7031 41.6504 20.7031Z" fill="#95E7EE"/>
<path d="M37.0661 11.0725C36.5138 10.2703 35.6642 9.67373 34.7012 9.46777C33.5732 9.22559 32.5039 9.47168 31.665 10.0342C31.1318 8.5127 29.6826 7.42187 27.9785 7.42187C27.2305 7.42187 26.5312 7.63184 25.9414 8.00488C24.5107 6.40527 22.4316 5.37109 20.1172 5.37109C17.1904 5.37109 14.6396 7.00879 13.3066 9.38477C8.5459 8.77441 4.44336 12.4727 4.44336 17.1182C4.44336 20.139 4.44336 23.6799 4.44336 24.4424C4.44336 25.5205 5.36621 26.3955 6.44531 26.3955C7.52441 26.3955 8.39844 25.5205 8.44727 24.4209V21.0244V16.6299C10.7373 16.6103 12.6973 15.2705 13.6406 13.3389C13.8037 13.0049 14.1436 12.793 14.5156 12.793C14.9785 12.793 15.4033 12.9668 15.7188 13.2764C16.5996 14.1426 17.8076 14.6768 19.1406 14.6768C20.5186 14.6768 21.7627 14.1064 22.6504 13.1885C22.8945 12.9355 23.2314 12.793 23.584 12.793C27.9297 12.793 27.8809 15.2812 27.8809 16.6299V20.5361C27.8809 21.6143 28.7549 22.4893 29.834 22.4893C30.9131 22.4893 31.7871 21.6143 31.7871 20.5361V16.6855V12.291C33.8521 13.3414 36.003 12.6107 37.0661 11.0725Z" fill="#FFE5CB"/>
<path d="M27.9297 44.0713C27.3906 44.0713 26.9531 44.5088 26.9531 45.0479C26.9531 45.5869 27.3906 46.0244 27.9297 46.0244C28.4688 46.0244 28.9062 45.5869 28.9062 45.0479C28.9062 44.5088 28.4688 44.0713 27.9297 44.0713Z" fill="white"/>
<path d="M14.209 19.5596C13.6696 19.5596 13.2324 19.9968 13.2324 20.5361V39.1885C13.2324 39.7278 13.6696 40.165 14.209 40.165C14.7483 40.165 15.1855 39.7278 15.1855 39.1885V20.5361C15.1855 19.9968 14.7483 19.5596 14.209 19.5596Z" fill="white"/>
<path d="M22.0215 19.5596C21.4821 19.5596 21.0449 19.9968 21.0449 20.5361V39.1885C21.0449 39.7278 21.4821 40.165 22.0215 40.165C22.5608 40.165 22.998 39.7278 22.998 39.1885V20.5361C22.998 19.9968 22.5608 19.5596 22.0215 19.5596Z" fill="white"/>
<path d="M12.3535 50H31.8848C34.5771 50 36.7676 47.8096 36.7676 45.1172V42.1875H41.6504C44.3428 42.1875 46.5332 39.9971 46.5332 37.3047V20.6055C46.5332 17.9131 44.3428 15.7227 41.6504 15.7227H36.7676V12.7677C38.2983 11.6201 39.0259 9.68047 38.5944 7.76533C38.1908 5.96943 36.7084 4.50381 34.9062 4.11836C33.948 3.91279 32.9831 3.98555 32.1039 4.31982C31.2223 2.92988 29.674 2.05078 27.9785 2.05078C27.3395 2.05078 26.7149 2.17471 26.1375 2.41318C24.5029 0.871289 22.3479 0 20.1172 0C17.1664 0 14.4145 1.50322 12.79 3.96279C7.68555 3.68037 3.4668 7.73008 3.4668 12.7236V24.4424C3.4668 26.0578 4.80293 27.3721 6.44531 27.3721C6.80557 27.3721 7.15078 27.3065 7.4707 27.1872V45.1172C7.4707 47.8096 9.66113 50 12.3535 50ZM31.8848 48.0469H12.3535C11.0805 48.0469 9.99492 47.2304 9.5918 46.0938H24.0244C24.5638 46.0938 25.001 45.6565 25.001 45.1172C25.001 44.5778 24.5638 44.1406 24.0244 44.1406H9.42383V24.4209V17.5299C11.6175 17.1987 13.517 15.8172 14.5156 13.7696C14.7193 13.7696 14.8988 13.8401 15.0341 13.9729C16.1362 15.0566 17.5946 15.6534 19.1406 15.6534C20.743 15.6534 22.2388 15.0191 23.353 13.8668C23.4126 13.8051 23.4969 13.7696 23.584 13.7696C25.1042 13.7696 26.0989 14.0943 26.5407 14.7346C26.9049 15.2624 26.9046 15.9958 26.9043 16.5852V20.5362C26.9043 21.8093 27.7208 22.8948 28.8574 23.2979V39.1886C28.8574 39.7279 29.2946 40.1651 29.834 40.1651C30.3733 40.1651 30.8105 39.7279 30.8105 39.1886V23.2979C31.9472 22.8947 32.7637 21.8093 32.7637 20.5361V13.6549C33.4478 13.7914 34.1459 13.7923 34.8145 13.6556V44.1406H31.835C31.2956 44.1406 30.8584 44.5778 30.8584 45.1172C30.8584 45.6565 31.2956 46.084 31.835 46.084H34.6465C34.2434 47.2206 33.1578 48.0469 31.8848 48.0469ZM36.7676 21.582H40.6738V36.3281H36.7676V21.582ZM41.6504 17.6758C43.2658 17.6758 44.5801 18.99 44.5801 20.6055V37.3047C44.5801 38.9201 43.2658 40.2344 41.6504 40.2344H36.7676V38.2812H41.6504C42.1897 38.2812 42.627 37.844 42.627 37.3047V20.6055C42.627 20.0661 42.1897 19.6289 41.6504 19.6289H36.7676V17.6758H41.6504ZM6.44531 25.4189C5.88955 25.4189 5.41992 24.9717 5.41992 24.4424V12.7236C5.41992 8.95449 8.5041 5.90215 12.2956 5.90215C12.5902 5.90215 12.8864 5.9209 13.1824 5.95889C13.5774 6.00957 13.9635 5.81523 14.1583 5.46807C15.3747 3.3 17.658 1.95312 20.1172 1.95312C22.0439 1.95312 23.9016 2.79443 25.2136 4.26143C25.5315 4.61709 26.0601 4.69092 26.4635 4.43574C26.9101 4.15322 27.434 4.00391 27.9785 4.00391C29.2217 4.00391 30.3328 4.79111 30.7435 5.9626C30.8434 6.24775 31.0697 6.4707 31.3564 6.56621C31.6431 6.66172 31.9579 6.61914 32.2089 6.45078C32.8745 6.00449 33.6868 5.85439 34.4969 6.02822C35.5516 6.25381 36.4529 7.14424 36.6889 8.19414C37.2447 10.6613 34.7157 12.6852 32.2298 11.4206C31.927 11.2666 31.5661 11.281 31.2765 11.4586C30.9869 11.6361 30.8104 11.9514 30.8104 12.291V20.5361C30.8104 21.0746 30.3724 21.5127 29.8339 21.5127C29.2954 21.5127 28.8573 21.0746 28.8573 20.5361V16.5857C28.8576 15.8166 28.8581 14.6542 28.1482 13.6253C27.3202 12.425 25.7846 11.8164 23.584 11.8164C22.9697 11.8164 22.3734 12.0692 21.9483 12.5097C21.206 13.2774 20.2088 13.7002 19.1406 13.7002C18.1101 13.7002 17.138 13.3024 16.4028 12.5794C15.9016 12.0873 15.2313 11.8164 14.5156 11.8164C13.7755 11.8164 13.0876 12.2458 12.7631 12.9104C11.9445 14.5865 10.2875 15.6376 8.43887 15.6534C7.90283 15.658 7.47061 16.0938 7.47061 16.63V24.3961C7.43623 24.9712 6.98906 25.4189 6.44531 25.4189Z" fill="white"/>
<path d="M75.7614 26.428H84.6534V39.028C83.2614 39.484 81.8574 39.82 80.4414 40.036C79.0254 40.252 77.4174 40.36 75.6174 40.36C72.9534 40.36 70.7094 39.832 68.8854 38.776C67.0614 37.696 65.6694 36.172 64.7094 34.204C63.7734 32.212 63.3054 29.86 63.3054 27.148C63.3054 24.46 63.8334 22.132 64.8894 20.164C65.9454 18.196 67.4574 16.672 69.4254 15.592C71.4174 14.488 73.8174 13.936 76.6254 13.936C78.0654 13.936 79.4214 14.068 80.6934 14.332C81.9894 14.596 83.1894 14.968 84.2934 15.448L83.0694 18.256C82.1574 17.848 81.1254 17.5 79.9734 17.212C78.8454 16.924 77.6694 16.78 76.4454 16.78C73.3734 16.78 70.9734 17.704 69.2454 19.552C67.5414 21.4 66.6894 23.932 66.6894 27.148C66.6894 29.188 67.0134 31 67.6614 32.584C68.3334 34.144 69.3774 35.368 70.7934 36.256C72.2094 37.12 74.0694 37.552 76.3734 37.552C77.5014 37.552 78.4614 37.492 79.2534 37.372C80.0454 37.252 80.7654 37.108 81.4134 36.94V29.308H75.7614V26.428ZM91.9808 13.468C92.4608 13.468 92.8808 13.636 93.2408 13.972C93.6248 14.284 93.8168 14.788 93.8168 15.484C93.8168 16.156 93.6248 16.66 93.2408 16.996C92.8808 17.332 92.4608 17.5 91.9808 17.5C91.4528 17.5 91.0088 17.332 90.6488 16.996C90.2888 16.66 90.1088 16.156 90.1088 15.484C90.1088 14.788 90.2888 14.284 90.6488 13.972C91.0088 13.636 91.4528 13.468 91.9808 13.468ZM93.5288 20.704V40H90.3608V20.704H93.5288ZM108.93 20.344C111.234 20.344 112.974 20.908 114.15 22.036C115.326 23.14 115.914 24.94 115.914 27.436V40H112.782V27.652C112.782 24.556 111.342 23.008 108.462 23.008C106.326 23.008 104.85 23.608 104.034 24.808C103.218 26.008 102.81 27.736 102.81 29.992V40H99.642V20.704H102.198L102.666 23.332H102.846C103.47 22.324 104.334 21.58 105.438 21.1C106.542 20.596 107.706 20.344 108.93 20.344ZM133.578 40V14.296H136.818V37.12H148.05V40H133.578ZM159.333 20.38C161.685 20.38 163.425 20.896 164.553 21.928C165.681 22.96 166.245 24.604 166.245 26.86V40H163.941L163.329 37.264H163.185C162.345 38.32 161.457 39.1 160.521 39.604C159.609 40.108 158.337 40.36 156.705 40.36C154.953 40.36 153.501 39.904 152.349 38.992C151.197 38.056 150.621 36.604 150.621 34.636C150.621 32.716 151.377 31.24 152.889 30.208C154.401 29.152 156.729 28.576 159.873 28.48L163.149 28.372V27.22C163.149 25.612 162.801 24.496 162.105 23.872C161.409 23.248 160.425 22.936 159.153 22.936C158.145 22.936 157.185 23.092 156.273 23.404C155.361 23.692 154.509 24.028 153.717 24.412L152.745 22.036C153.585 21.58 154.581 21.196 155.733 20.884C156.885 20.548 158.085 20.38 159.333 20.38ZM160.269 30.676C157.869 30.772 156.201 31.156 155.265 31.828C154.353 32.5 153.897 33.448 153.897 34.672C153.897 35.752 154.221 36.544 154.869 37.048C155.541 37.552 156.393 37.804 157.425 37.804C159.057 37.804 160.413 37.36 161.493 36.472C162.573 35.56 163.113 34.168 163.113 32.296V30.568L160.269 30.676ZM188.981 30.316C188.981 33.508 188.165 35.98 186.533 37.732C184.925 39.484 182.741 40.36 179.981 40.36C178.277 40.36 176.753 39.976 175.409 39.208C174.089 38.416 173.045 37.276 172.277 35.788C171.509 34.276 171.125 32.452 171.125 30.316C171.125 27.124 171.929 24.664 173.537 22.936C175.145 21.208 177.329 20.344 180.089 20.344C181.841 20.344 183.377 20.74 184.697 21.532C186.041 22.3 187.085 23.428 187.829 24.916C188.597 26.38 188.981 28.18 188.981 30.316ZM174.401 30.316C174.401 32.596 174.845 34.408 175.733 35.752C176.645 37.072 178.085 37.732 180.053 37.732C181.997 37.732 183.425 37.072 184.337 35.752C185.249 34.408 185.705 32.596 185.705 30.316C185.705 28.036 185.249 26.248 184.337 24.952C183.425 23.656 181.985 23.008 180.017 23.008C178.049 23.008 176.621 23.656 175.733 24.952C174.845 26.248 174.401 28.036 174.401 30.316ZM216.843 26.428H225.735V39.028C224.343 39.484 222.939 39.82 221.523 40.036C220.107 40.252 218.499 40.36 216.699 40.36C214.035 40.36 211.791 39.832 209.967 38.776C208.143 37.696 206.751 36.172 205.791 34.204C204.855 32.212 204.387 29.86 204.387 27.148C204.387 24.46 204.915 22.132 205.971 20.164C207.027 18.196 208.539 16.672 210.507 15.592C212.499 14.488 214.899 13.936 217.707 13.936C219.147 13.936 220.503 14.068 221.775 14.332C223.071 14.596 224.271 14.968 225.375 15.448L224.151 18.256C223.239 17.848 222.207 17.5 221.055 17.212C219.927 16.924 218.751 16.78 217.527 16.78C214.455 16.78 212.055 17.704 210.327 19.552C208.623 21.4 207.771 23.932 207.771 27.148C207.771 29.188 208.095 31 208.743 32.584C209.415 34.144 210.459 35.368 211.875 36.256C213.291 37.12 215.151 37.552 217.455 37.552C218.583 37.552 219.543 37.492 220.335 37.372C221.127 37.252 221.847 37.108 222.495 36.94V29.308H216.843V26.428ZM247.571 20.704V40H244.979L244.511 37.444H244.367C243.743 38.452 242.879 39.196 241.775 39.676C240.671 40.132 239.495 40.36 238.247 40.36C235.919 40.36 234.167 39.808 232.991 38.704C231.815 37.576 231.227 35.788 231.227 33.34V20.704H234.431V33.124C234.431 36.196 235.859 37.732 238.715 37.732C240.851 37.732 242.327 37.132 243.143 35.932C243.983 34.732 244.403 33.004 244.403 30.748V20.704H247.571ZM262.985 20.344C265.289 20.344 267.029 20.908 268.205 22.036C269.381 23.14 269.969 24.94 269.969 27.436V40H266.837V27.652C266.837 24.556 265.397 23.008 262.517 23.008C260.381 23.008 258.905 23.608 258.089 24.808C257.273 26.008 256.865 27.736 256.865 29.992V40H253.697V20.704H256.253L256.721 23.332H256.901C257.525 22.324 258.389 21.58 259.493 21.1C260.597 20.596 261.761 20.344 262.985 20.344Z" fill="white"/>
</svg>
