<svg width="42" height="42" viewBox="0 0 42 42" fill="none" xmlns="http://www.w3.org/2000/svg">
<g clip-path="url(#clip0)">
<path d="M28.1722 13.8741L28.1717 13.8743L28.1726 13.8744L40.0163 14.9335C40.888 15.0109 41.6248 15.592 41.8933 16.4101C42.1635 17.2298 41.9121 18.1257 41.2539 18.6929L32.3015 26.424L32.3011 26.4236L32.3013 26.4245L34.9412 37.8774C35.1343 38.7174 34.8028 39.588 34.0932 40.0945C33.3855 40.5997 32.4437 40.6401 31.6966 40.1974L21.484 34.1838L21.4843 34.1833L21.4835 34.1838L11.2672 40.1974C10.9219 40.4009 10.5373 40.5038 10.1495 40.5038C9.69967 40.5038 9.25363 40.3657 8.87239 40.0945C8.16313 39.5895 7.83134 38.7193 8.02447 37.8774L10.6643 26.4245L10.6649 26.4246L10.6642 26.424L1.71175 18.6914C1.0535 18.1257 0.804042 17.2283 1.07416 16.4101C1.34428 15.592 2.07922 15.0127 2.94937 14.9335L14.7949 13.8744L14.795 13.8749L14.7953 13.8741L19.4786 3.07984C19.8239 2.28696 20.6102 1.77491 21.4838 1.77491C22.3574 1.77491 23.1436 2.28696 23.4889 3.07799L28.1722 13.8741Z" fill="#C5BFAF" stroke="black" stroke-width="0.001"/>
</g>
<defs>
<clipPath id="clip0">
<rect width="41.0345" height="40.4143" fill="white" transform="translate(0.965332 0.907227)"/>
</clipPath>
</defs>
</svg>
