<svg width="119" height="119" viewBox="0 0 119 119" fill="none" xmlns="http://www.w3.org/2000/svg">
<path d="M58.6521 57.3227C66.5272 57.3227 73.3455 54.4983 78.9182 48.9256C84.489 43.3539 87.3144 36.5365 87.3144 28.6605C87.3144 20.7872 84.4899 13.9689 78.9173 8.39532C73.3446 2.82446 66.5263 0 58.6521 0C50.7761 0 43.9587 2.82446 38.3869 8.39622C32.8151 13.968 29.9897 20.7863 29.9897 28.6605C29.9897 36.5365 32.8151 43.3548 38.3869 48.9265C43.9605 54.4974 50.7788 57.3227 58.6521 57.3227ZM43.3186 13.327C47.5939 9.05172 52.6091 6.97355 58.6521 6.97355C64.6941 6.97355 69.7103 9.05172 73.9865 13.327C78.2618 17.6032 80.3409 22.6193 80.3409 28.6605C80.3409 34.7034 78.2618 39.7186 73.9865 43.9948C69.7103 48.271 64.6941 50.3492 58.6521 50.3492C52.6109 50.3492 47.5957 48.2701 43.3186 43.9948C39.0424 39.7195 36.9633 34.7034 36.9633 28.6605C36.9633 22.6193 39.0424 17.6032 43.3186 13.327Z" fill="black"/>
<path d="M108.803 91.505C108.643 89.1863 108.318 86.6569 107.839 83.9858C107.356 81.2948 106.734 78.7509 105.99 76.4258C105.22 74.0226 104.175 71.6494 102.881 69.3751C101.54 67.0145 99.9641 64.9591 98.1955 63.2677C96.3461 61.4982 94.0818 60.0755 91.4635 59.0378C88.8542 58.0055 85.9625 57.4825 82.8693 57.4825C81.6545 57.4825 80.4797 57.981 78.2109 59.4581C76.8145 60.3687 75.1812 61.4219 73.3582 62.5867C71.7993 63.58 69.6875 64.5106 67.0791 65.3531C64.5343 66.1766 61.9504 66.5942 59.3992 66.5942C56.8498 66.5942 54.266 66.1766 51.7193 65.3531C49.1136 64.5115 47.001 63.5809 45.4448 62.5876C43.639 61.4337 42.0048 60.3805 40.5876 59.4572C38.3206 57.9801 37.1457 57.4816 35.931 57.4816C32.8369 57.4816 29.9461 58.0055 27.3377 59.0387C24.7212 60.0746 22.4559 61.4973 20.6047 63.2686C18.8362 64.9609 17.26 67.0154 15.92 69.3751C14.6281 71.6494 13.5822 74.0217 12.8123 76.4267C12.0687 78.7518 11.4468 81.2948 10.9638 83.9858C10.4844 86.6532 10.1603 89.1835 9.99959 91.5078C9.84161 93.7802 9.76172 96.1453 9.76172 98.5349C9.76172 104.747 11.7364 109.776 15.6304 113.484C19.4762 117.144 24.5641 119 30.7532 119H88.0525C94.2398 119 99.3277 117.144 103.174 113.484C107.069 109.778 109.044 104.748 109.044 98.534C109.043 96.1362 108.962 93.7711 108.803 91.505ZM98.3662 108.432C95.825 110.85 92.4512 112.026 88.0516 112.026H30.7532C26.3526 112.026 22.9789 110.85 20.4386 108.433C17.9464 106.06 16.7353 102.822 16.7353 98.5349C16.7353 96.3051 16.8088 94.1034 16.9559 91.9899C17.0993 89.9162 17.3926 87.6383 17.8275 85.2179C18.2569 82.8274 18.8035 80.584 19.4535 78.553C20.0773 76.6056 20.928 74.6772 21.9829 72.8196C22.9898 71.0492 24.1483 69.5303 25.4266 68.3065C26.6223 67.1616 28.1294 66.2247 29.9053 65.522C31.5476 64.8719 33.3934 64.516 35.3971 64.4624C35.6413 64.5923 36.0762 64.8401 36.7808 65.2995C38.2143 66.2337 39.8667 67.2996 41.6934 68.4663C43.7525 69.7791 46.4054 70.9648 49.5749 71.988C52.8151 73.0357 56.1199 73.5677 59.4001 73.5677C62.6804 73.5677 65.986 73.0357 69.2245 71.9889C72.3967 70.9639 75.0487 69.7791 77.1105 68.4644C78.9799 67.2697 80.5859 66.2347 82.0195 65.2995C82.724 64.841 83.1589 64.5923 83.4031 64.4624C85.4078 64.516 87.2535 64.8719 88.8968 65.522C90.6718 66.2247 92.1789 67.1625 93.3746 68.3065C94.6529 69.5294 95.8114 71.0483 96.8182 72.8205C97.8741 74.6772 98.7257 76.6065 99.3485 78.5521C99.9995 80.5858 100.547 82.8283 100.976 85.217C101.409 87.6419 101.704 89.9208 101.847 91.9908V91.9926C101.995 94.098 102.07 96.2987 102.07 98.5349C102.07 102.823 100.858 106.06 98.3662 108.432Z" fill="black"/>
</svg>
