<svg width="31" height="31" viewBox="0 0 31 31" fill="none" xmlns="http://www.w3.org/2000/svg">
<path d="M15.2792 14.9328C17.3307 14.9328 19.1069 14.197 20.5586 12.7453C22.0098 11.2939 22.7458 9.5179 22.7458 7.46617C22.7458 5.41515 22.01 3.63896 20.5583 2.18702C19.1066 0.735785 17.3304 0 15.2792 0C13.2274 0 11.4515 0.735785 9.99999 2.18725C8.54852 3.63872 7.8125 5.41491 7.8125 7.46617C7.8125 9.5179 8.54852 11.2941 9.99999 12.7456C11.4519 14.1968 13.2281 14.9328 15.2792 14.9328ZM11.2847 3.47174C12.3985 2.35801 13.7049 1.81664 15.2792 1.81664C16.8531 1.81664 18.1599 2.35801 19.2738 3.47174C20.3876 4.58571 20.9292 5.89243 20.9292 7.46617C20.9292 9.04039 20.3876 10.3469 19.2738 11.4608C18.1599 12.5748 16.8531 13.1162 15.2792 13.1162C13.7054 13.1162 12.3989 12.5746 11.2847 11.4608C10.1708 10.3471 9.62914 9.04039 9.62914 7.46617C9.62914 5.89243 10.1708 4.58571 11.2847 3.47174Z" fill="black"/>
<path d="M28.3437 23.8374C28.3019 23.2333 28.2172 22.5744 28.0926 21.8786C27.9667 21.1776 27.8047 20.5149 27.6108 19.9092C27.4102 19.2831 27.138 18.6649 26.801 18.0724C26.4517 17.4575 26.0411 16.922 25.5803 16.4814C25.0986 16.0204 24.5087 15.6498 23.8266 15.3795C23.1469 15.1106 22.3936 14.9744 21.5878 14.9744C21.2713 14.9744 20.9653 15.1042 20.3743 15.489C20.0105 15.7262 19.585 16.0006 19.1101 16.304C18.704 16.5628 18.1539 16.8052 17.4744 17.0247C16.8115 17.2392 16.1383 17.348 15.4737 17.348C14.8096 17.348 14.1365 17.2392 13.4731 17.0247C12.7943 16.8054 12.2439 16.563 11.8386 16.3043C11.3681 16.0037 10.9424 15.7293 10.5732 15.4888C9.98267 15.104 9.67662 14.9741 9.36017 14.9741C8.55414 14.9741 7.80109 15.1106 7.12159 15.3797C6.43996 15.6496 5.84987 16.0202 5.36762 16.4816C4.9069 16.9225 4.49632 17.4577 4.14722 18.0724C3.81067 18.6649 3.53821 19.2829 3.33765 19.9094C3.14394 20.5151 2.98193 21.1776 2.85611 21.8786C2.73123 22.5734 2.6468 23.2326 2.60493 23.8381C2.56378 24.4301 2.54297 25.0462 2.54297 25.6687C2.54297 27.2869 3.05738 28.5969 4.07178 29.5631C5.07364 30.5164 6.39905 30.9999 8.01134 30.9999H22.938C24.5499 30.9999 25.8753 30.5164 26.8774 29.5631C27.892 28.5976 28.4064 27.2871 28.4064 25.6684C28.4062 25.0438 28.3851 24.4277 28.3437 23.8374ZM25.6248 28.2469C24.9628 28.8769 24.0839 29.1832 22.9378 29.1832H8.01134C6.86497 29.1832 5.9861 28.8769 5.32434 28.2471C4.67512 27.6291 4.35961 26.7855 4.35961 25.6687C4.35961 25.0878 4.37877 24.5143 4.41708 23.9637C4.45445 23.4235 4.53085 22.8301 4.64413 22.1995C4.756 21.5768 4.89838 20.9924 5.06773 20.4633C5.23021 19.956 5.45182 19.4536 5.72665 18.9697C5.98894 18.5085 6.29073 18.1129 6.62373 17.794C6.93522 17.4958 7.32783 17.2517 7.79044 17.0687C8.21829 16.8993 8.69912 16.8066 9.2211 16.7927C9.28472 16.8265 9.39801 16.891 9.58154 17.0107C9.95499 17.2541 10.3854 17.5317 10.8613 17.8357C11.3977 18.1777 12.0888 18.4865 12.9145 18.7531C13.7586 19.026 14.6195 19.1646 15.474 19.1646C16.3285 19.1646 17.1896 19.026 18.0333 18.7533C18.8596 18.4863 19.5505 18.1777 20.0876 17.8352C20.5746 17.5239 20.993 17.2543 21.3664 17.0107C21.55 16.8913 21.6632 16.8265 21.7269 16.7927C22.2491 16.8066 22.7299 16.8993 23.158 17.0687C23.6204 17.2517 24.013 17.496 24.3245 17.794C24.6575 18.1126 24.9593 18.5083 25.2216 18.97C25.4966 19.4536 25.7185 19.9562 25.8807 20.4631C26.0503 20.9928 26.1929 21.577 26.3045 22.1993C26.4176 22.831 26.4942 23.4247 26.5316 23.9639V23.9644C26.5701 24.5128 26.5895 25.0861 26.5898 25.6687C26.5895 26.7857 26.274 27.6291 25.6248 28.2469Z" fill="black"/>
</svg>
